<?xml version="1.0" encoding="UTF-8"?><svg id="Bottle" xmlns="http://www.w3.org/2000/svg" viewBox="0 0 1395.46 3083.01"><defs><style>.cls-1{fill:#77bf7c;stroke-width:0px;}</style></defs><path class="cls-1" d="M201.76,1384.75c-8.64-4.34-19.15-.85-23.49,7.79-4.85,9.65-9.68,19.85-14.37,30.32-3.95,8.82,0,19.17,8.81,23.13,2.32,1.04,4.75,1.53,7.15,1.53,6.68,0,13.07-3.85,15.98-10.35,4.48-10,9.09-19.73,13.71-28.92,4.34-8.64.85-19.16-7.79-23.49Z"/><path class="cls-1" d="M135.11,1554.16c-9.26-2.76-19.01,2.52-21.76,11.79-14.23,47.86-18.25,73.14-25.31,121.33-5.71,38.94-8.77,76.37-9.11,111.24-.09,9.67,7.66,17.58,17.33,17.67.06,0,.12,0,.17,0,9.58,0,17.4-7.72,17.5-17.33.33-33.29,3.27-69.12,8.75-106.5,7-47.75,10.66-70.78,24.23-116.43,2.75-9.26-2.52-19.01-11.79-21.76Z"/><path class="cls-1" d="M165.02,1465.42c-9.01-3.5-19.15.97-22.65,9.98-4.01,10.32-4.09,10.52-6.43,17.47-.51,1.52-1.14,3.4-1.97,5.84-3.1,9.15,1.8,19.09,10.95,22.19,1.86.63,3.76.93,5.62.93,7.29,0,14.1-4.59,16.57-11.88.84-2.47,1.48-4.38,2-5.92q2.08-6.19,5.88-15.96c3.5-9.01-.97-19.15-9.98-22.65Z"/><path class="cls-1" d="M598.67,1114.72c2.03.77,4.12,1.13,6.17,1.13,7.08,0,13.74-4.32,16.38-11.34l43.08-114.39c3.41-9.04-1.16-19.14-10.21-22.54-9.05-3.41-19.14,1.16-22.55,10.21l-43.08,114.39c-3.41,9.04,1.16,19.14,10.21,22.54Z"/><path class="cls-1" d="M1318,1324.17c-39.21-116.14-170.95-455.3-177.74-472.76-18.83-63.44-28.37-129.04-28.37-195v-384.93c25.06-15.5,40.75-42.9,40.75-72.47v-113.48c0-47.16-38.93-85.53-86.78-85.53h-311.35c-47.86,0-86.79,38.37-86.79,85.53v113.48c0,29.58,15.69,56.98,40.76,72.48v384.92c0,65.95-9.55,131.59-28.4,195.09l-19.98,53.03c-3.41,9.04,1.16,19.14,10.21,22.55,9.05,3.41,19.14-1.16,22.55-10.21l20.2-53.62.4-1.18c19.92-66.93,30.03-136.12,30.03-205.66v-394.85c0-3.36-.96-6.64-2.78-9.46l-.52-.81c-1.82-2.83-4.42-5.08-7.48-6.47-18.21-8.27-29.98-26.25-29.98-45.81v-113.48c0-27.86,23.23-50.53,51.79-50.53h311.35c28.55,0,51.78,22.67,51.78,50.53v113.48c0,18.98-11.08,36.47-28.38,45.05h-152.72c-9.67,0-17.5,7.84-17.5,17.5s7.83,17.5,17.5,17.5h140.35v377.35c0,69.58,10.1,138.77,30.03,205.67l.2.68.26.67c1.37,3.53,137.66,354.07,177.46,471.94,50.89,150.72,75.62,319.03,75.62,514.54v1006.99c0,96.02-81.93,174.14-182.63,174.14h-445.12c-9.55,0-17.32,7.65-17.5,17.17-.18,9.81,8.15,17.83,17.96,17.83h444.66c120,0,217.63-93.82,217.63-209.14v-1006.99c0-199.38-25.34-371.35-77.46-525.74Z"/><path class="cls-1" d="M567,1198.8c2.03.77,4.12,1.13,6.17,1.13,7.08,0,13.74-4.32,16.38-11.34l10.13-26.88c3.41-9.04-1.16-19.14-10.21-22.55-9.04-3.41-19.14,1.16-22.55,10.21l-10.13,26.88c-3.41,9.04,1.16,19.14,10.21,22.55Z"/><path class="cls-1" d="M1302.27,1792.06c0-9.67-7.84-17.5-17.5-17.5s-17.5,7.83-17.5,17.5v118.47c0,9.67,7.83,17.5,17.5,17.5s17.5-7.83,17.5-17.5v-118.47Z"/><path class="cls-1" d="M1224.81,1324.17c-11.28-33.43-31.01-87.71-58.62-161.33-19.61-52.34-43.29-114.63-70.36-185.15-3.46-9.02-13.58-13.53-22.61-10.07-9.02,3.46-13.53,13.59-10.06,22.61,27.04,70.43,50.68,132.64,70.26,184.89,27.48,73.27,47.08,127.18,58.24,160.24,38.42,113.78,61.65,236.16,71.01,374.14.63,9.24,8.32,16.32,17.44,16.32.4,0,.8-.01,1.2-.04,9.64-.65,16.93-9,16.28-18.64-9.57-141.02-33.37-266.29-72.77-382.96Z"/><path class="cls-1" d="M1284.77,1953.28c-9.67,0-17.5,7.84-17.5,17.5v24.51c0,9.66,7.83,17.5,17.5,17.5s17.5-7.84,17.5-17.5v-24.51c0-9.66-7.84-17.5-17.5-17.5Z"/><path class="cls-1" d="M883.94,279.06c9.67,0,17.5-7.83,17.5-17.5s-7.83-17.5-17.5-17.5h-28.25c-9.67,0-17.5,7.84-17.5,17.5s7.83,17.5,17.5,17.5h28.25Z"/><path class="cls-1" d="M512.88,2152.06c112.93-45.01,197.67-111.37,232.48-182.07,34.15-69.37,42.63-178.12,23.86-306.23-17.52-119.55-56.81-241.88-107.79-335.62,0,0,0,0,0,0-10.11-18.58-29.63-30.12-50.92-30.12H168.48c-21.3,0-40.81,11.54-50.92,30.13-50.99,93.75-90.28,216.07-107.79,335.62-18.77,128.11-10.3,236.86,23.86,306.23,34.81,70.7,119.55,137.06,232.48,182.07,54.02,21.53,80.28,49.17,80.28,84.49v636.56c0,7.37-10.67,13.08-19.96,17.23l-1.03.46c-42.91,19.32-83.4,29.53-119.12,38.54-53.71,13.54-96.14,24.24-106.9,60.98-4.5,15.34-2.09,29.89,6.99,42.1,25.79,34.69,104.46,49.35,271.41,50.54.43.03.86.05,1.29.05.63,0,5.53,0,10.42,0s9.79,0,10.42,0c.43,0,.86-.02,1.29-.05,166.95-1.2,245.63-15.85,271.41-50.54,9.07-12.21,11.49-26.76,6.99-42.09-10.76-36.75-53.19-47.45-106.9-60.99-35.72-9.01-76.21-19.21-119.12-38.54l-1.02-.46c-9.29-4.15-19.96-9.86-19.96-17.23v-636.56c0-35.33,26.26-62.96,80.28-84.49ZM438.29,2922.3l.92.41c45.73,20.59,89.65,31.67,124.94,40.56,42.87,10.81,76.73,19.34,81.87,36.9,1.73,5.89.3,8.94-1.49,11.36-4.92,6.62-21.69,18.94-78.72,27.18-39.79,5.74-94.12,8.77-166.09,9.26-.39,0-.77.02-1.15.05-3.68,0-14.45,0-18.13,0-.38-.03-.77-.04-1.16-.05-71.97-.48-126.3-3.51-166.09-9.26-57.04-8.23-73.8-20.56-78.72-27.18-1.8-2.42-3.22-5.47-1.49-11.37,5.14-17.54,39-26.08,81.87-36.89,35.29-8.9,79.21-19.97,124.94-40.56l.93-.41c10.06-4.49,40.69-18.17,40.69-49.19v-636.56c0-50.58-34.43-89.94-102.32-117-104.99-41.84-183-101.99-214.04-165.01-31.05-63.07-38.38-164.54-20.63-285.7,16.94-115.62,54.82-233.71,103.91-323.97,3.98-7.31,11.71-11.86,20.18-11.86h442.02c8.47,0,16.2,4.54,20.18,11.85,49.09,90.26,86.97,208.35,103.91,323.97,17.75,121.16,10.43,222.62-20.63,285.7-31.04,63.03-109.05,123.17-214.04,165.01-67.9,27.06-102.32,66.42-102.32,117v636.56c0,31.02,30.63,44.69,40.69,49.19Z"/></svg>